# xmcd
#
# Track frame offsets:
# 150
# 16723
# 36017
# 56490
# 75249
# 91406
# 112581
# 130217
# 147868
# 168643
#
# Disc length: 2487 seconds
#
#
# Revision: 0
# Processed by: cddbd v1.5.2PL0 Copyright (c) Steve Scherf et al.
# Submitted via: FreeRIP 2.951 
#
DISCID=6d09b50a
DTITLE=Peter Graae - Today Is Cool 
DYEAR=1900
DGENRE=Pop
TTITLE0=Take it easy
TTITLE1=A 1000 reasons
TTITLE2=Star
TTITLE3=Never really wanted to run
TTITLE4=I hold my head up high
TTITLE5=Never turn around
TTITLE6=A simple man
TTITLE7=Tired of being your fool
TTITLE8=Tomorrow's rain
TTITLE9=You were not easy to find
EXTD=
EXTT0=
EXTT1=
EXTT2=
EXTT3=
EXTT4=
EXTT5=
EXTT6=
EXTT7=
EXTT8=
EXTT9=
PLAYORDER=
